<svg width="33" height="32" viewBox="0 0 33 32" fill="none" xmlns="http://www.w3.org/2000/svg">
<rect x="0.5" width="32" height="32" rx="16" fill="#19A301"/>
<path d="M7.75781 19.6953L10.0234 10.125H11.2891L11.5781 11.7188L9.16406 21.5H7.80469L7.75781 19.6953ZM6.59375 10.125L8.46875 19.6953L8.3125 21.5H6.79688L4.27344 10.125H6.59375ZM13.5703 19.6562L15.4219 10.125H17.7422L15.2266 21.5H13.7109L13.5703 19.6562ZM12 10.125L14.2812 19.7344L14.2188 21.5H12.8594L10.4297 11.7109L10.7422 10.125H12ZM24.2109 10.125V21.5H21.875V10.125H24.2109ZM27.7109 10.125V11.9609H18.4297V10.125H27.7109Z" fill="white"/>
</svg>
