<svg width="33" height="32" viewBox="0 0 33 32" fill="none" xmlns="http://www.w3.org/2000/svg">
<rect x="0.5" width="32" height="32" rx="16" fill="#01AA8C"/>
<path d="M15.3594 15.5469V16.0859C15.3594 16.9505 15.2422 17.7266 15.0078 18.4141C14.7734 19.1016 14.4427 19.6875 14.0156 20.1719C13.5885 20.651 13.0781 21.0182 12.4844 21.2734C11.8958 21.5286 11.2422 21.6562 10.5234 21.6562C9.8099 21.6562 9.15625 21.5286 8.5625 21.2734C7.97396 21.0182 7.46354 20.651 7.03125 20.1719C6.59896 19.6875 6.26302 19.1016 6.02344 18.4141C5.78906 17.7266 5.67188 16.9505 5.67188 16.0859V15.5469C5.67188 14.6771 5.78906 13.901 6.02344 13.2188C6.25781 12.5312 6.58854 11.9453 7.01562 11.4609C7.44792 10.9766 7.95833 10.6068 8.54688 10.3516C9.14062 10.0964 9.79427 9.96875 10.5078 9.96875C11.2266 9.96875 11.8802 10.0964 12.4688 10.3516C13.0625 10.6068 13.5729 10.9766 14 11.4609C14.4323 11.9453 14.7656 12.5312 15 13.2188C15.2396 13.901 15.3594 14.6771 15.3594 15.5469ZM12.9922 16.0859V15.5312C12.9922 14.9271 12.9375 14.3958 12.8281 13.9375C12.7188 13.4792 12.5573 13.0938 12.3438 12.7812C12.1302 12.4688 11.8698 12.2344 11.5625 12.0781C11.2552 11.9167 10.9036 11.8359 10.5078 11.8359C10.112 11.8359 9.76042 11.9167 9.45312 12.0781C9.15104 12.2344 8.89323 12.4688 8.67969 12.7812C8.47135 13.0938 8.3125 13.4792 8.20312 13.9375C8.09375 14.3958 8.03906 14.9271 8.03906 15.5312V16.0859C8.03906 16.6849 8.09375 17.2161 8.20312 17.6797C8.3125 18.138 8.47396 18.526 8.6875 18.8438C8.90104 19.1562 9.16146 19.3932 9.46875 19.5547C9.77604 19.7161 10.1276 19.7969 10.5234 19.7969C10.9193 19.7969 11.2708 19.7161 11.5781 19.5547C11.8854 19.3932 12.1432 19.1562 12.3516 18.8438C12.5599 18.526 12.7188 18.138 12.8281 17.6797C12.9375 17.2161 12.9922 16.6849 12.9922 16.0859ZM26.3906 15.5469V16.0859C26.3906 16.9505 26.2734 17.7266 26.0391 18.4141C25.8047 19.1016 25.474 19.6875 25.0469 20.1719C24.6198 20.651 24.1094 21.0182 23.5156 21.2734C22.9271 21.5286 22.2734 21.6562 21.5547 21.6562C20.8411 21.6562 20.1875 21.5286 19.5938 21.2734C19.0052 21.0182 18.4948 20.651 18.0625 20.1719C17.6302 19.6875 17.2943 19.1016 17.0547 18.4141C16.8203 17.7266 16.7031 16.9505 16.7031 16.0859V15.5469C16.7031 14.6771 16.8203 13.901 17.0547 13.2188C17.2891 12.5312 17.6198 11.9453 18.0469 11.4609C18.4792 10.9766 18.9896 10.6068 19.5781 10.3516C20.1719 10.0964 20.8255 9.96875 21.5391 9.96875C22.2578 9.96875 22.9115 10.0964 23.5 10.3516C24.0938 10.6068 24.6042 10.9766 25.0312 11.4609C25.4635 11.9453 25.7969 12.5312 26.0312 13.2188C26.2708 13.901 26.3906 14.6771 26.3906 15.5469ZM24.0234 16.0859V15.5312C24.0234 14.9271 23.9688 14.3958 23.8594 13.9375C23.75 13.4792 23.5885 13.0938 23.375 12.7812C23.1615 12.4688 22.901 12.2344 22.5938 12.0781C22.2865 11.9167 21.9349 11.8359 21.5391 11.8359C21.1432 11.8359 20.7917 11.9167 20.4844 12.0781C20.1823 12.2344 19.9245 12.4688 19.7109 12.7812C19.5026 13.0938 19.3438 13.4792 19.2344 13.9375C19.125 14.3958 19.0703 14.9271 19.0703 15.5312V16.0859C19.0703 16.6849 19.125 17.2161 19.2344 17.6797C19.3438 18.138 19.5052 18.526 19.7188 18.8438C19.9323 19.1562 20.1927 19.3932 20.5 19.5547C20.8073 19.7161 21.1589 19.7969 21.5547 19.7969C21.9505 19.7969 22.3021 19.7161 22.6094 19.5547C22.9167 19.3932 23.1745 19.1562 23.3828 18.8438C23.5911 18.526 23.75 18.138 23.8594 17.6797C23.9688 17.2161 24.0234 16.6849 24.0234 16.0859Z" fill="white"/>
</svg>
