<svg width="15" height="14" viewBox="0 0 15 14" fill="none" xmlns="http://www.w3.org/2000/svg">
<path d="M13.4999 8.33333C13.3231 8.33333 13.1535 8.40357 13.0285 8.52859C12.9035 8.65362 12.8333 8.82319 12.8333 9V11.6667C12.8333 11.8435 12.763 12.013 12.638 12.1381C12.513 12.2631 12.3434 12.3333 12.1666 12.3333H2.83325C2.65644 12.3333 2.48687 12.2631 2.36185 12.1381C2.23682 12.013 2.16659 11.8435 2.16659 11.6667V9C2.16659 8.82319 2.09635 8.65362 1.97132 8.52859C1.8463 8.40357 1.67673 8.33333 1.49992 8.33333C1.32311 8.33333 1.15354 8.40357 1.02851 8.52859C0.90349 8.65362 0.833252 8.82319 0.833252 9V11.6667C0.833252 12.1971 1.04397 12.7058 1.41904 13.0809C1.79411 13.456 2.30282 13.6667 2.83325 13.6667H12.1666C12.697 13.6667 13.2057 13.456 13.5808 13.0809C13.9559 12.7058 14.1666 12.1971 14.1666 11.6667V9C14.1666 8.82319 14.0963 8.65362 13.9713 8.52859C13.8463 8.40357 13.6767 8.33333 13.4999 8.33333ZM7.02659 9.47333C7.08999 9.53403 7.16475 9.5816 7.24659 9.61333C7.32639 9.6486 7.41267 9.66682 7.49992 9.66682C7.58717 9.66682 7.67345 9.6486 7.75325 9.61333C7.83509 9.5816 7.90985 9.53403 7.97325 9.47333L10.6399 6.80667C10.7655 6.68113 10.836 6.51087 10.836 6.33333C10.836 6.1558 10.7655 5.98553 10.6399 5.86C10.5144 5.73446 10.3441 5.66394 10.1666 5.66394C9.98905 5.66394 9.81879 5.73446 9.69325 5.86L8.16659 7.39333V0.999999C8.16659 0.823188 8.09635 0.653618 7.97132 0.528594C7.8463 0.40357 7.67673 0.333332 7.49992 0.333332C7.32311 0.333332 7.15354 0.40357 7.02851 0.528594C6.90349 0.653618 6.83325 0.823188 6.83325 0.999999V7.39333L5.30659 5.86C5.24443 5.79784 5.17063 5.74853 5.08942 5.71489C5.0082 5.68125 4.92116 5.66394 4.83325 5.66394C4.74535 5.66394 4.6583 5.68125 4.57709 5.71489C4.49587 5.74853 4.42208 5.79784 4.35992 5.86C4.29776 5.92216 4.24845 5.99595 4.21481 6.07717C4.18117 6.15838 4.16386 6.24543 4.16386 6.33333C4.16386 6.42124 4.18117 6.50828 4.21481 6.5895C4.24845 6.67071 4.29776 6.74451 4.35992 6.80667L7.02659 9.47333Z" fill="#8B8B8B"/>
</svg>
