<svg width="31" height="23" viewBox="0 0 31 23" fill="none" xmlns="http://www.w3.org/2000/svg">
<path d="M15.9 11.7933C16.6114 11.1775 17.1821 10.4159 17.5732 9.56004C17.9643 8.70422 18.1667 7.77428 18.1667 6.83334C18.1667 5.06523 17.4643 3.36954 16.2141 2.11929C14.9638 0.869051 13.2681 0.166672 11.5 0.166672C9.7319 0.166672 8.03621 0.869051 6.78597 2.11929C5.53572 3.36954 4.83334 5.06523 4.83334 6.83334C4.83333 7.77428 5.03575 8.70422 5.42684 9.56004C5.81794 10.4159 6.38857 11.1775 7.10001 11.7933C5.23353 12.6385 3.64996 14.0034 2.53865 15.7247C1.42734 17.4461 0.835306 19.4511 0.833344 21.5C0.833344 21.8536 0.973819 22.1928 1.22387 22.4428C1.47392 22.6929 1.81305 22.8333 2.16668 22.8333C2.5203 22.8333 2.85944 22.6929 3.10949 22.4428C3.35953 22.1928 3.50001 21.8536 3.50001 21.5C3.50001 19.3783 4.34287 17.3434 5.84316 15.8432C7.34345 14.3429 9.37828 13.5 11.5 13.5C13.6217 13.5 15.6566 14.3429 17.1569 15.8432C18.6572 17.3434 19.5 19.3783 19.5 21.5C19.5 21.8536 19.6405 22.1928 19.8905 22.4428C20.1406 22.6929 20.4797 22.8333 20.8333 22.8333C21.187 22.8333 21.5261 22.6929 21.7762 22.4428C22.0262 22.1928 22.1667 21.8536 22.1667 21.5C22.1647 19.4511 21.5727 17.4461 20.4614 15.7247C19.3501 14.0034 17.7665 12.6385 15.9 11.7933V11.7933ZM11.5 10.8333C10.7089 10.8333 9.93553 10.5987 9.27773 10.1592C8.61993 9.71969 8.10724 9.09498 7.80449 8.36407C7.50174 7.63317 7.42253 6.8289 7.57687 6.05298C7.73121 5.27705 8.11217 4.56432 8.67158 4.00491C9.23099 3.4455 9.94373 3.06454 10.7196 2.9102C11.4956 2.75586 12.2998 2.83507 13.0307 3.13782C13.7616 3.44057 14.3864 3.95326 14.8259 4.61106C15.2654 5.26885 15.5 6.04221 15.5 6.83334C15.5 7.8942 15.0786 8.91162 14.3284 9.66177C13.5783 10.4119 12.5609 10.8333 11.5 10.8333ZM24.4867 11.26C25.34 10.2991 25.8974 9.11208 26.0917 7.84179C26.2861 6.5715 26.1092 5.2721 25.5824 4.1C25.0555 2.92791 24.2011 1.93307 23.122 1.23524C22.0429 0.537405 20.7851 0.166328 19.5 0.166672C19.1464 0.166672 18.8073 0.307148 18.5572 0.557196C18.3072 0.807245 18.1667 1.14638 18.1667 1.50001C18.1667 1.85363 18.3072 2.19277 18.5572 2.44281C18.8073 2.69286 19.1464 2.83334 19.5 2.83334C20.5609 2.83334 21.5783 3.25477 22.3284 4.00491C23.0786 4.75506 23.5 5.77247 23.5 6.83334C23.4981 7.53366 23.3124 8.22121 22.9614 8.82723C22.6104 9.43326 22.1065 9.93651 21.5 10.2867C21.3023 10.4007 21.1372 10.5636 21.0205 10.7597C20.9038 10.9558 20.8393 11.1785 20.8333 11.4067C20.8278 11.633 20.8799 11.8571 20.9849 12.0577C21.0899 12.2583 21.2442 12.4289 21.4333 12.5533L21.9533 12.9L22.1267 12.9933C23.7339 13.7556 25.0898 14.9613 26.0346 16.4684C26.9795 17.9755 27.4741 19.7213 27.46 21.5C27.46 21.8536 27.6005 22.1928 27.8505 22.4428C28.1006 22.6929 28.4397 22.8333 28.7933 22.8333C29.147 22.8333 29.4861 22.6929 29.7362 22.4428C29.9862 22.1928 30.1267 21.8536 30.1267 21.5C30.1376 19.4539 29.6251 17.439 28.638 15.6468C27.6508 13.8545 26.2218 12.3444 24.4867 11.26V11.26Z" fill="#E0E0E0"/>
</svg>
