<svg width="21" height="11" viewBox="0 0 21 11" fill="none" xmlns="http://www.w3.org/2000/svg">
<path d="M10.4907 0.0128208C13.5503 0.00214532 16.1409 1.19353 18.4649 3.05213C19.3147 3.74689 20.1128 4.50036 20.8531 5.30678C21.0294 5.49467 21.0642 5.61424 20.8662 5.82668C18.2364 8.64287 15.1279 10.6157 11.1566 10.9616C8.54536 11.189 6.18978 10.4033 4.03005 8.99302C2.56121 8.0301 1.30236 6.82804 0.143616 5.52456C-0.0587564 5.29718 -0.041348 5.1616 0.157761 4.95343C2.70918 2.26961 5.72628 0.439839 9.5137 0.017091C9.83905 -0.00224686 10.1652 -0.00367249 10.4907 0.0128208ZM13.7679 5.54698C13.7679 3.53999 12.1946 1.92907 10.2264 1.92586C8.25812 1.92266 6.65546 3.53999 6.6609 5.53204C6.66634 7.52408 8.29294 9.16169 10.2416 9.13394C12.1902 9.10618 13.7679 7.51767 13.7679 5.54698ZM12.6799 9.57163C12.7114 9.58124 12.7473 9.60473 12.7756 9.59832C15.3738 8.96313 17.5107 7.55504 19.4256 5.76049C19.5899 5.6057 19.541 5.50321 19.4049 5.36763C17.5629 3.53252 15.5087 2.03689 12.9149 1.38355C12.8297 1.35487 12.7428 1.33099 12.6548 1.31202C12.5656 1.30028 12.4623 1.2405 12.3709 1.34085C15.4554 3.08308 15.8351 7.3885 12.6799 9.57163ZM7.73043 1.51593C7.67653 1.50415 7.62132 1.49912 7.56613 1.50098C5.26387 2.18421 3.31413 3.43431 1.58199 5.04737C1.37635 5.23953 1.43293 5.35269 1.60266 5.51069C2.07378 5.95265 2.51769 6.42451 3.00513 6.84725C4.34558 8.00234 5.82529 8.93751 7.62053 9.48623C4.80037 7.3127 4.97228 3.47381 7.73043 1.51593Z" fill="white"/>
</svg>
