<svg width="33" height="33" viewBox="0 0 33 33" fill="none" xmlns="http://www.w3.org/2000/svg">
<path d="M25.8333 16.5H16.5V7.16667C16.5 6.36667 15.9667 5.83334 15.1667 5.83334C8.49999 5.83334 3.16666 11.1667 3.16666 17.8333C3.16666 24.5 8.49999 29.8333 15.1667 29.8333C21.8333 29.8333 27.1667 24.5 27.1667 17.8333C27.1667 17.0333 26.6333 16.5 25.8333 16.5ZM16.5 27.0333C11.4333 27.8333 6.63332 24.2333 5.96666 19.1667C5.16666 14.1 8.76666 9.3 13.8333 8.63334V17.8333C13.8333 18.6333 14.3667 19.1667 15.1667 19.1667H24.3667C23.8333 23.3 20.6333 26.5 16.5 27.0333ZM20.5 3.16667C19.7 3.16667 19.1667 3.70001 19.1667 4.50001V12.5C19.1667 13.3 19.7 13.8333 20.5 13.8333H28.5C29.3 13.8333 29.8333 13.3 29.8333 12.5C29.8333 7.3 25.7 3.16667 20.5 3.16667ZM21.8333 11.1667V5.96667C24.5 6.50001 26.5 8.50001 27.0333 11.1667H21.8333Z" fill="white" fill-opacity="0.65"/>
</svg>
