<svg width="8" height="14" viewBox="0 0 8 14" fill="none" xmlns="http://www.w3.org/2000/svg">
<path d="M0.460018 6.29001L6.12002 0.640006C6.21298 0.546278 6.32358 0.471884 6.44544 0.421115C6.5673 0.370346 6.69801 0.344208 6.83002 0.344208C6.96203 0.344208 7.09274 0.370346 7.21459 0.421115C7.33645 0.471884 7.44706 0.546278 7.54002 0.640006C7.72627 0.827368 7.83081 1.08082 7.83081 1.34501C7.83081 1.60919 7.72627 1.86264 7.54002 2.05001L2.59002 7.05001L7.54002 12C7.72627 12.1874 7.83081 12.4408 7.83081 12.705C7.83081 12.9692 7.72627 13.2226 7.54002 13.41C7.4474 13.5045 7.33696 13.5797 7.21508 13.6312C7.09321 13.6827 6.96233 13.7095 6.83002 13.71C6.69771 13.7095 6.56683 13.6827 6.44495 13.6312C6.32308 13.5797 6.21263 13.5045 6.12002 13.41L0.460018 7.76001C0.358513 7.66636 0.277505 7.55271 0.222097 7.42621C0.16669 7.29971 0.138085 7.16311 0.138085 7.02501C0.138085 6.8869 0.16669 6.7503 0.222097 6.6238C0.277505 6.4973 0.358513 6.38365 0.460018 6.29001Z" fill="#444444"/>
</svg>
