<svg width="33" height="33" viewBox="0 0 33 33" fill="none" xmlns="http://www.w3.org/2000/svg">
<path d="M29.8333 3.16667H3.16667C2.81305 3.16667 2.47391 3.30715 2.22386 3.5572C1.97381 3.80724 1.83334 4.14638 1.83334 4.50001V15.1667C1.83334 15.5203 1.97381 15.8594 2.22386 16.1095C2.47391 16.3595 2.81305 16.5 3.16667 16.5H7.16667V28.5C7.16667 28.8536 7.30715 29.1928 7.55719 29.4428C7.80724 29.6929 8.14638 29.8333 8.5 29.8333H24.5C24.8536 29.8333 25.1928 29.6929 25.4428 29.4428C25.6929 29.1928 25.8333 28.8536 25.8333 28.5V16.5H29.8333C30.187 16.5 30.5261 16.3595 30.7761 16.1095C31.0262 15.8594 31.1667 15.5203 31.1667 15.1667V4.50001C31.1667 4.14638 31.0262 3.80724 30.7761 3.5572C30.5261 3.30715 30.187 3.16667 29.8333 3.16667ZM9.83334 27.1667V24.5C10.5406 24.5 11.2189 24.781 11.719 25.2811C12.219 25.7812 12.5 26.4594 12.5 27.1667H9.83334ZM23.1667 27.1667H20.5C20.5 26.4594 20.781 25.7812 21.281 25.2811C21.7811 24.781 22.4594 24.5 23.1667 24.5V27.1667ZM23.1667 21.8333C21.7522 21.8333 20.3956 22.3952 19.3954 23.3954C18.3952 24.3956 17.8333 25.7522 17.8333 27.1667H15.1667C15.1667 25.7522 14.6048 24.3956 13.6046 23.3954C12.6044 22.3952 11.2478 21.8333 9.83334 21.8333V11.1667H23.1667V21.8333ZM28.5 13.8333H25.8333V9.83334C25.8333 9.47972 25.6929 9.14058 25.4428 8.89053C25.1928 8.64048 24.8536 8.50001 24.5 8.50001H8.5C8.14638 8.50001 7.80724 8.64048 7.55719 8.89053C7.30715 9.14058 7.16667 9.47972 7.16667 9.83334V13.8333H4.5V5.83334H28.5V13.8333ZM16.5 20.5C17.2911 20.5 18.0645 20.2654 18.7223 19.8259C19.3801 19.3864 19.8928 18.7616 20.1955 18.0307C20.4983 17.2998 20.5775 16.4956 20.4231 15.7196C20.2688 14.9437 19.8878 14.231 19.3284 13.6716C18.769 13.1122 18.0563 12.7312 17.2804 12.5769C16.5044 12.4225 15.7002 12.5017 14.9693 12.8045C14.2384 13.1072 13.6136 13.6199 13.1741 14.2777C12.7346 14.9355 12.5 15.7089 12.5 16.5C12.5 17.5609 12.9214 18.5783 13.6716 19.3284C14.4217 20.0786 15.4391 20.5 16.5 20.5ZM16.5 15.1667C16.7637 15.1667 17.0215 15.2449 17.2408 15.3914C17.46 15.5379 17.6309 15.7461 17.7318 15.9898C17.8328 16.2334 17.8592 16.5015 17.8077 16.7601C17.7563 17.0188 17.6293 17.2563 17.4428 17.4428C17.2563 17.6293 17.0188 17.7563 16.7601 17.8077C16.5015 17.8592 16.2334 17.8328 15.9898 17.7318C15.7461 17.6309 15.5379 17.46 15.3914 17.2408C15.2449 17.0215 15.1667 16.7637 15.1667 16.5C15.1667 16.1464 15.3071 15.8072 15.5572 15.5572C15.8072 15.3071 16.1464 15.1667 16.5 15.1667Z" fill="white" fill-opacity="0.65"/>
</svg>
