<svg width="30" height="28" viewBox="0 0 30 28" fill="none" xmlns="http://www.w3.org/2000/svg">
<path d="M18 17.229V14.049C17.9986 12.6321 17.4958 11.2615 16.5806 10.1798C15.6655 9.09809 14.3971 8.37516 13 8.13901V7.04901C13 6.78379 12.8946 6.52944 12.7071 6.3419C12.5196 6.15437 12.2652 6.04901 12 6.04901C11.7348 6.04901 11.4804 6.15437 11.2929 6.3419C11.1054 6.52944 11 6.78379 11 7.04901V8.13901C9.60294 8.37516 8.33452 9.09809 7.41939 10.1798C6.50425 11.2615 6.00144 12.6321 6 14.049V17.229C5.41645 17.4353 4.911 17.8171 4.55294 18.3219C4.19488 18.8268 4.00174 19.4301 4 20.049V22.049C4 22.3142 4.10536 22.5686 4.29289 22.7561C4.48043 22.9437 4.73478 23.049 5 23.049H8.14C8.37028 23.8964 8.873 24.6444 9.5706 25.1777C10.2682 25.7111 11.1219 26 12 26C12.8781 26 13.7318 25.7111 14.4294 25.1777C15.127 24.6444 15.6297 23.8964 15.86 23.049H19C19.2652 23.049 19.5196 22.9437 19.7071 22.7561C19.8946 22.5686 20 22.3142 20 22.049V20.049C19.9983 19.4301 19.8051 18.8268 19.4471 18.3219C19.089 17.8171 18.5835 17.4353 18 17.229ZM8 14.049C8 12.9881 8.42143 11.9707 9.17157 11.2206C9.92172 10.4704 10.9391 10.049 12 10.049C13.0609 10.049 14.0783 10.4704 14.8284 11.2206C15.5786 11.9707 16 12.9881 16 14.049V17.049H8V14.049ZM12 24.049C11.651 24.0469 11.3086 23.9535 11.0068 23.7781C10.7051 23.6026 10.4545 23.3513 10.28 23.049H13.72C13.5455 23.3513 13.2949 23.6026 12.9932 23.7781C12.6914 23.9535 12.349 24.0469 12 24.049ZM18 21.049H6V20.049C6 19.7838 6.10536 19.5294 6.29289 19.3419C6.48043 19.1544 6.73478 19.049 7 19.049H17C17.2652 19.049 17.5196 19.1544 17.7071 19.3419C17.8946 19.5294 18 19.7838 18 20.049V21.049Z" fill="#8B8B8B"/>
<rect x="14" y="0.0490112" width="16" height="16" rx="8" fill="#C92F02"/>
<path d="M24.2881 3.93964V4.64276L21.4951 11.049H20.1328L22.9258 4.95526H19.3125V3.93964H24.2881Z" fill="white"/>
</svg>
