<svg width="33" height="33" viewBox="0 0 33 33" fill="none" xmlns="http://www.w3.org/2000/svg">
<path d="M13.1667 14.5H16.5C16.8536 14.5 17.1928 14.3595 17.4428 14.1095C17.6929 13.8594 17.8333 13.5203 17.8333 13.1667C17.8333 12.813 17.6929 12.4739 17.4428 12.2239C17.1928 11.9738 16.8536 11.8333 16.5 11.8333H15.1667V11.1667C15.1667 10.813 15.0262 10.4739 14.7761 10.2239C14.5261 9.9738 14.187 9.83333 13.8333 9.83333C13.4797 9.83333 13.1406 9.9738 12.8905 10.2239C12.6405 10.4739 12.5 10.813 12.5 11.1667V11.9C11.6899 12.0645 10.9698 12.5241 10.4795 13.1897C9.98927 13.8552 9.76378 14.6792 9.84686 15.5017C9.92994 16.3241 10.3156 17.0864 10.9291 17.6404C11.5426 18.1945 12.34 18.5008 13.1667 18.5H14.5C14.6768 18.5 14.8464 18.5702 14.9714 18.6953C15.0964 18.8203 15.1667 18.9899 15.1667 19.1667C15.1667 19.3435 15.0964 19.513 14.9714 19.6381C14.8464 19.7631 14.6768 19.8333 14.5 19.8333H11.1667C10.813 19.8333 10.4739 19.9738 10.2239 20.2239C9.97381 20.4739 9.83333 20.813 9.83333 21.1667C9.83333 21.5203 9.97381 21.8594 10.2239 22.1095C10.4739 22.3595 10.813 22.5 11.1667 22.5H12.5V23.1667C12.5 23.5203 12.6405 23.8594 12.8905 24.1095C13.1406 24.3595 13.4797 24.5 13.8333 24.5C14.187 24.5 14.5261 24.3595 14.7761 24.1095C15.0262 23.8594 15.1667 23.5203 15.1667 23.1667V22.4333C15.9768 22.2688 16.6969 21.8092 17.1871 21.1436C17.6774 20.4781 17.9029 19.6541 17.8198 18.8317C17.7367 18.0092 17.351 17.247 16.7376 16.6929C16.1241 16.1388 15.3266 15.8325 14.5 15.8333H13.1667C12.9899 15.8333 12.8203 15.7631 12.6953 15.6381C12.5702 15.513 12.5 15.3435 12.5 15.1667C12.5 14.9899 12.5702 14.8203 12.6953 14.6953C12.8203 14.5702 12.9899 14.5 13.1667 14.5ZM28.5 16.5H24.5V4.49999C24.5009 4.26505 24.4398 4.03403 24.3227 3.83032C24.2056 3.62662 24.0368 3.45747 23.8333 3.33999C23.6306 3.22297 23.4007 3.16136 23.1667 3.16136C22.9326 3.16136 22.7027 3.22297 22.5 3.33999L18.5 5.63333L14.5 3.33999C14.2973 3.22297 14.0674 3.16136 13.8333 3.16136C13.5993 3.16136 13.3694 3.22297 13.1667 3.33999L9.16667 5.63333L5.16667 3.33999C4.96397 3.22297 4.73405 3.16136 4.5 3.16136C4.26595 3.16136 4.03603 3.22297 3.83333 3.33999C3.62986 3.45747 3.46104 3.62662 3.34397 3.83032C3.2269 4.03403 3.16573 4.26505 3.16667 4.49999V25.8333C3.16667 26.8942 3.58809 27.9116 4.33824 28.6618C5.08839 29.4119 6.1058 29.8333 7.16667 29.8333H25.8333C26.8942 29.8333 27.9116 29.4119 28.6618 28.6618C29.4119 27.9116 29.8333 26.8942 29.8333 25.8333V17.8333C29.8333 17.4797 29.6929 17.1406 29.4428 16.8905C29.1928 16.6405 28.8536 16.5 28.5 16.5ZM7.16667 27.1667C6.81304 27.1667 6.47391 27.0262 6.22386 26.7761C5.97381 26.5261 5.83333 26.187 5.83333 25.8333V6.80666L8.5 8.32666C8.70578 8.43414 8.9345 8.49028 9.16667 8.49028C9.39883 8.49028 9.62755 8.43414 9.83333 8.32666L13.8333 6.03333L17.8333 8.32666C18.0391 8.43414 18.2678 8.49028 18.5 8.49028C18.7322 8.49028 18.9609 8.43414 19.1667 8.32666L21.8333 6.80666V25.8333C21.8369 26.2882 21.9181 26.7391 22.0733 27.1667H7.16667ZM27.1667 25.8333C27.1667 26.187 27.0262 26.5261 26.7761 26.7761C26.5261 27.0262 26.187 27.1667 25.8333 27.1667C25.4797 27.1667 25.1406 27.0262 24.8905 26.7761C24.6405 26.5261 24.5 26.187 24.5 25.8333V19.1667H27.1667V25.8333Z" fill="white" fill-opacity="0.65"/>
</svg>
