<svg width="17" height="16" viewBox="0 0 17 16" fill="none" xmlns="http://www.w3.org/2000/svg">
<path d="M5.16659 6.66667C5.03473 6.66667 4.90584 6.70576 4.79621 6.77902C4.68657 6.85227 4.60112 6.95639 4.55067 7.07821C4.50021 7.20003 4.487 7.33407 4.51273 7.46339C4.53845 7.59271 4.60195 7.7115 4.69518 7.80474C4.78842 7.89797 4.9072 7.96147 5.03653 7.98719C5.16585 8.01291 5.29989 7.99971 5.42171 7.94925C5.54352 7.89879 5.64764 7.81335 5.7209 7.70371C5.79415 7.59408 5.83325 7.46519 5.83325 7.33333C5.83325 7.15652 5.76301 6.98695 5.63799 6.86193C5.51297 6.7369 5.3434 6.66667 5.16659 6.66667ZM13.1666 4H12.4999V2C12.4999 1.82319 12.4297 1.65362 12.3047 1.52859C12.1796 1.40357 12.0101 1.33333 11.8333 1.33333H5.16659C4.98977 1.33333 4.82021 1.40357 4.69518 1.52859C4.57016 1.65362 4.49992 1.82319 4.49992 2V4H3.83325C3.30282 4 2.79411 4.21071 2.41904 4.58579C2.04397 4.96086 1.83325 5.46957 1.83325 6V10C1.83325 10.5304 2.04397 11.0391 2.41904 11.4142C2.79411 11.7893 3.30282 12 3.83325 12H4.49992V14C4.49992 14.1768 4.57016 14.3464 4.69518 14.4714C4.82021 14.5964 4.98977 14.6667 5.16659 14.6667H11.8333C12.0101 14.6667 12.1796 14.5964 12.3047 14.4714C12.4297 14.3464 12.4999 14.1768 12.4999 14V12H13.1666C13.697 12 14.2057 11.7893 14.5808 11.4142C14.9559 11.0391 15.1666 10.5304 15.1666 10V6C15.1666 5.46957 14.9559 4.96086 14.5808 4.58579C14.2057 4.21071 13.697 4 13.1666 4ZM5.83325 2.66667H11.1666V4H5.83325V2.66667ZM11.1666 13.3333H5.83325V10.6667H11.1666V13.3333ZM13.8333 10C13.8333 10.1768 13.763 10.3464 13.638 10.4714C13.513 10.5964 13.3434 10.6667 13.1666 10.6667H12.4999V10C12.4999 9.82319 12.4297 9.65362 12.3047 9.52859C12.1796 9.40357 12.0101 9.33333 11.8333 9.33333H5.16659C4.98977 9.33333 4.82021 9.40357 4.69518 9.52859C4.57016 9.65362 4.49992 9.82319 4.49992 10V10.6667H3.83325C3.65644 10.6667 3.48687 10.5964 3.36185 10.4714C3.23682 10.3464 3.16659 10.1768 3.16659 10V6C3.16659 5.82319 3.23682 5.65362 3.36185 5.52859C3.48687 5.40357 3.65644 5.33333 3.83325 5.33333H13.1666C13.3434 5.33333 13.513 5.40357 13.638 5.52859C13.763 5.65362 13.8333 5.82319 13.8333 6V10Z" fill="#8B8B8B"/>
</svg>
