<svg width="15" height="14" viewBox="0 0 15 14" fill="none" xmlns="http://www.w3.org/2000/svg">
<path d="M11.5001 8.33333C11.1062 8.33594 10.7178 8.42577 10.3628 8.59637C10.0077 8.76697 9.69491 9.0141 9.44677 9.32L6.04677 7.75333C6.20662 7.26383 6.20662 6.73617 6.04677 6.24667L9.44677 4.68C9.84785 5.16398 10.407 5.49072 11.0255 5.60256C11.6441 5.7144 12.2822 5.60415 12.8274 5.29127C13.3726 4.97838 13.7897 4.48298 14.0051 3.89249C14.2206 3.302 14.2205 2.65439 14.005 2.06394C13.7894 1.47349 13.3722 0.978161 12.827 0.665378C12.2818 0.352594 11.6436 0.242461 11.0251 0.354415C10.4065 0.466368 9.84745 0.793211 9.44646 1.27726C9.04547 1.76131 8.82835 2.37145 8.83343 3C8.83544 3.15882 8.85105 3.31718 8.8801 3.47333L5.3601 5.09333C4.98482 4.72638 4.5096 4.47834 3.99397 4.38028C3.47834 4.28223 2.94525 4.33851 2.46147 4.54209C1.97769 4.74566 1.56474 5.08748 1.27437 5.52471C0.983992 5.96193 0.829102 6.47513 0.829102 7C0.829102 7.52487 0.983992 8.03806 1.27437 8.47529C1.56474 8.91252 1.97769 9.25433 2.46147 9.45791C2.94525 9.66149 3.47834 9.71777 3.99397 9.61971C4.5096 9.52166 4.98482 9.27361 5.3601 8.90667L8.8801 10.5267C8.85105 10.6828 8.83544 10.8412 8.83343 11C8.83343 11.5274 8.98983 12.043 9.28285 12.4815C9.57586 12.9201 9.99234 13.2618 10.4796 13.4637C10.9669 13.6655 11.5031 13.7183 12.0203 13.6154C12.5376 13.5125 13.0128 13.2586 13.3857 12.8856C13.7587 12.5127 14.0126 12.0375 14.1155 11.5202C14.2184 11.003 14.1656 10.4668 13.9638 9.97951C13.7619 9.49224 13.4202 9.07576 12.9816 8.78275C12.5431 8.48973 12.0275 8.33333 11.5001 8.33333ZM11.5001 1.66667C11.7638 1.66667 12.0216 1.74486 12.2409 1.89137C12.4601 2.03788 12.631 2.24612 12.7319 2.48975C12.8329 2.73339 12.8593 3.00148 12.8078 3.26012C12.7564 3.51876 12.6294 3.75634 12.4429 3.94281C12.2564 4.12928 12.0189 4.25627 11.7602 4.30771C11.5016 4.35916 11.2335 4.33276 10.9899 4.23184C10.7462 4.13092 10.538 3.96002 10.3915 3.74076C10.245 3.52149 10.1668 3.26371 10.1668 3C10.1668 2.64638 10.3072 2.30724 10.5573 2.05719C10.8073 1.80714 11.1465 1.66667 11.5001 1.66667ZM3.5001 8.33333C3.23639 8.33333 2.97861 8.25513 2.75934 8.10862C2.54007 7.96212 2.36918 7.75388 2.26826 7.51024C2.16734 7.26661 2.14094 6.99852 2.19239 6.73988C2.24383 6.48124 2.37082 6.24366 2.55729 6.05719C2.74376 5.87072 2.98134 5.74373 3.23998 5.69229C3.49862 5.64084 3.76671 5.66724 4.01034 5.76816C4.25398 5.86908 4.46222 6.03997 4.60873 6.25924C4.75523 6.4785 4.83343 6.73629 4.83343 7C4.83343 7.35362 4.69296 7.69276 4.44291 7.94281C4.19286 8.19286 3.85372 8.33333 3.5001 8.33333ZM11.5001 12.3333C11.2364 12.3333 10.9786 12.2551 10.7593 12.1086C10.5401 11.9621 10.3692 11.7539 10.2683 11.5102C10.1673 11.2666 10.1409 10.9985 10.1924 10.7399C10.2438 10.4812 10.3708 10.2437 10.5573 10.0572C10.7438 9.87072 10.9813 9.74373 11.24 9.69229C11.4986 9.64084 11.7667 9.66724 12.0103 9.76816C12.254 9.86908 12.4622 10.04 12.6087 10.2592C12.7552 10.4785 12.8334 10.7363 12.8334 11C12.8334 11.3536 12.693 11.6928 12.4429 11.9428C12.1929 12.1929 11.8537 12.3333 11.5001 12.3333Z" fill="#8B8B8B"/>
</svg>
