<svg width="14" height="14" viewBox="0 0 14 14" fill="none" xmlns="http://www.w3.org/2000/svg">
<path d="M12.3333 4.45334V1C12.3333 0.823192 12.2631 0.653622 12.1381 0.528598C12.013 0.403574 11.8435 0.333336 11.6667 0.333336C11.4899 0.333336 11.3203 0.403574 11.1953 0.528598C11.0702 0.653622 11 0.823192 11 1V4.45334C10.6139 4.59347 10.2803 4.84909 10.0446 5.18545C9.80881 5.5218 9.68235 5.92259 9.68235 6.33334C9.68235 6.74408 9.80881 7.14487 10.0446 7.48123C10.2803 7.81758 10.6139 8.0732 11 8.21334V13C11 13.1768 11.0702 13.3464 11.1953 13.4714C11.3203 13.5964 11.4899 13.6667 11.6667 13.6667C11.8435 13.6667 12.013 13.5964 12.1381 13.4714C12.2631 13.3464 12.3333 13.1768 12.3333 13V8.21334C12.7194 8.0732 13.053 7.81758 13.2888 7.48123C13.5245 7.14487 13.651 6.74408 13.651 6.33334C13.651 5.92259 13.5245 5.5218 13.2888 5.18545C13.053 4.84909 12.7194 4.59347 12.3333 4.45334ZM11.6667 7C11.5348 7 11.4059 6.9609 11.2963 6.88765C11.1867 6.81439 11.1012 6.71028 11.0507 6.58846C11.0003 6.46664 10.9871 6.3326 11.0128 6.20328C11.0385 6.07396 11.102 5.95517 11.1953 5.86193C11.2885 5.7687 11.4073 5.7052 11.5366 5.67948C11.6659 5.65376 11.8 5.66696 11.9218 5.71742C12.0436 5.76787 12.1477 5.85332 12.221 5.96296C12.2942 6.07259 12.3333 6.20148 12.3333 6.33334C12.3333 6.51015 12.2631 6.67972 12.1381 6.80474C12.013 6.92976 11.8435 7 11.6667 7ZM7.66667 8.45334V1C7.66667 0.823192 7.59643 0.653622 7.4714 0.528598C7.34638 0.403574 7.17681 0.333336 7 0.333336C6.82319 0.333336 6.65362 0.403574 6.52859 0.528598C6.40357 0.653622 6.33333 0.823192 6.33333 1V8.45334C5.94723 8.59347 5.61364 8.84909 5.37789 9.18545C5.14215 9.5218 5.01568 9.92259 5.01568 10.3333C5.01568 10.7441 5.14215 11.1449 5.37789 11.4812C5.61364 11.8176 5.94723 12.0732 6.33333 12.2133V13C6.33333 13.1768 6.40357 13.3464 6.52859 13.4714C6.65362 13.5964 6.82319 13.6667 7 13.6667C7.17681 13.6667 7.34638 13.5964 7.4714 13.4714C7.59643 13.3464 7.66667 13.1768 7.66667 13V12.2133C8.05277 12.0732 8.38636 11.8176 8.6221 11.4812C8.85785 11.1449 8.98432 10.7441 8.98432 10.3333C8.98432 9.92259 8.85785 9.5218 8.6221 9.18545C8.38636 8.84909 8.05277 8.59347 7.66667 8.45334ZM7 11C6.86814 11 6.73925 10.9609 6.62962 10.8876C6.51999 10.8144 6.43454 10.7103 6.38408 10.5885C6.33362 10.4666 6.32042 10.3326 6.34614 10.2033C6.37187 10.074 6.43536 9.95517 6.52859 9.86193C6.62183 9.7687 6.74062 9.7052 6.86994 9.67948C6.99926 9.65376 7.1333 9.66696 7.25512 9.71742C7.37694 9.76787 7.48106 9.85332 7.55431 9.96296C7.62757 10.0726 7.66667 10.2015 7.66667 10.3333C7.66667 10.5101 7.59643 10.6797 7.4714 10.8047C7.34638 10.9298 7.17681 11 7 11ZM3 3.12V1C3 0.823192 2.92976 0.653622 2.80474 0.528598C2.67971 0.403574 2.51014 0.333336 2.33333 0.333336C2.15652 0.333336 1.98695 0.403574 1.86193 0.528598C1.7369 0.653622 1.66667 0.823192 1.66667 1V3.12C1.28056 3.26014 0.946972 3.51576 0.711226 3.85211C0.475481 4.18847 0.349014 4.58926 0.349014 5C0.349014 5.41075 0.475481 5.81154 0.711226 6.14789C0.946972 6.48425 1.28056 6.73987 1.66667 6.88V13C1.66667 13.1768 1.7369 13.3464 1.86193 13.4714C1.98695 13.5964 2.15652 13.6667 2.33333 13.6667C2.51014 13.6667 2.67971 13.5964 2.80474 13.4714C2.92976 13.3464 3 13.1768 3 13V6.88C3.3861 6.73987 3.71969 6.48425 3.95544 6.14789C4.19118 5.81154 4.31765 5.41075 4.31765 5C4.31765 4.58926 4.19118 4.18847 3.95544 3.85211C3.71969 3.51576 3.3861 3.26014 3 3.12ZM2.33333 5.66667C2.20148 5.66667 2.07258 5.62757 1.96295 5.55432C1.85332 5.48106 1.76787 5.37694 1.71741 5.25513C1.66695 5.13331 1.65375 4.99926 1.67948 4.86994C1.7052 4.74062 1.76869 4.62183 1.86193 4.5286C1.95516 4.43536 2.07395 4.37187 2.20327 4.34615C2.33259 4.32042 2.46664 4.33362 2.58845 4.38408C2.71027 4.43454 2.81439 4.51999 2.88765 4.62962C2.9609 4.73925 3 4.86815 3 5C3 5.17681 2.92976 5.34638 2.80474 5.47141C2.67971 5.59643 2.51014 5.66667 2.33333 5.66667Z" fill="#B9BBC0"/>
</svg>
