<svg width="14" height="14" viewBox="0 0 14 14" fill="none" xmlns="http://www.w3.org/2000/svg">
<path d="M5.80671 8.83334C5.86868 8.89583 5.94242 8.94543 6.02366 8.97927C6.1049 9.01312 6.19203 9.03054 6.28004 9.03054C6.36805 9.03054 6.45519 9.01312 6.53643 8.97927C6.61766 8.94543 6.6914 8.89583 6.75337 8.83334L9.47337 6.11334C9.59891 5.98781 9.66943 5.81754 9.66943 5.64001C9.66943 5.46248 9.59891 5.29221 9.47337 5.16668C9.34784 5.04114 9.17757 4.97062 9.00004 4.97062C8.82251 4.97062 8.65224 5.04114 8.52671 5.16668L6.28004 7.42001L5.47337 6.60668C5.34784 6.48114 5.17757 6.41062 5.00004 6.41062C4.82251 6.41062 4.65224 6.48114 4.52671 6.60668C4.40117 6.73221 4.33065 6.90248 4.33065 7.08001C4.33065 7.25754 4.40117 7.42781 4.52671 7.55334L5.80671 8.83334ZM13 0.333344H1.00004C0.82323 0.333344 0.65366 0.403581 0.528636 0.528606C0.403612 0.65363 0.333374 0.823199 0.333374 1.00001V13C0.333374 13.1768 0.403612 13.3464 0.528636 13.4714C0.65366 13.5964 0.82323 13.6667 1.00004 13.6667H13C13.1769 13.6667 13.3464 13.5964 13.4714 13.4714C13.5965 13.3464 13.6667 13.1768 13.6667 13V1.00001C13.6667 0.823199 13.5965 0.65363 13.4714 0.528606C13.3464 0.403581 13.1769 0.333344 13 0.333344ZM12.3334 12.3333H1.66671V1.66668H12.3334V12.3333Z" fill="#19A301"/>
</svg>
